<svg xmlns="http://www.w3.org/2000/svg" width="24" height="24" fill="none" viewBox="0 0 24 24"><path fill="currentColor" d="M17 17h-2.025a.93.93 0 0 1-.7-.288A1 1 0 0 1 14 16q0-.424.288-.712A.97.97 0 0 1 15 15h2v-2q0-.424.288-.712A.97.97 0 0 1 18 12q.424 0 .713.288A.96.96 0 0 1 19 13v2h2q.425 0 .713.288T22 16q0 .424-.288.713A.96.96 0 0 1 21 17h-2v2a.97.97 0 0 1-.288.713A.96.96 0 0 1 18 20a.97.97 0 0 1-.712-.288A.97.97 0 0 1 17 19zm-7 0H7q-2.074 0-3.537-1.463Q2.001 14.075 2 12q0-2.075 1.463-3.537Q4.927 7 7 7h3q.425 0 .713.288.288.289.287.712 0 .424-.288.713A.96.96 0 0 1 10 9H7q-1.25 0-2.125.875A2.9 2.9 0 0 0 4 12q0 1.25.875 2.125A2.9 2.9 0 0 0 7 15h3q.425 0 .713.288T11 16t-.288.713A.96.96 0 0 1 10 17m-1-4a.97.97 0 0 1-.712-.288A.97.97 0 0 1 8 12q0-.424.288-.712A.97.97 0 0 1 9 11h6q.425 0 .713.288T16 12t-.288.713A.96.96 0 0 1 15 13zm13-1h-2q0-1.25-.875-2.125A2.9 2.9 0 0 0 17 9h-3.025a.93.93 0 0 1-.7-.288A1 1 0 0 1 13 8q0-.424.288-.712A.97.97 0 0 1 14 7h3q2.075 0 3.538 1.463T22 12"/></svg>