<svg xmlns="http://www.w3.org/2000/svg" width="24" height="24" fill="none" viewBox="0 0 24 24"><path fill="currentColor" d="M7 21q-.824 0-1.412-.587A1.93 1.93 0 0 1 5 19V6a.97.97 0 0 1-.712-.288A.97.97 0 0 1 4 5q0-.424.288-.712A.97.97 0 0 1 5 4h4q0-.424.288-.712A.97.97 0 0 1 10 3h4q.425 0 .713.288.288.289.287.712h4q.425 0 .713.288.288.289.287.712 0 .424-.288.713A.96.96 0 0 1 19 6v13q0 .825-.587 1.413A1.92 1.92 0 0 1 17 21zM17 6H7v13h10zm-5 7.9 1.9 1.9a.95.95 0 0 0 .7.275.95.95 0 0 0 .7-.275.95.95 0 0 0 .275-.7.95.95 0 0 0-.275-.7l-1.9-1.9 1.9-1.9a.95.95 0 0 0 .275-.7.95.95 0 0 0-.275-.7.95.95 0 0 0-.7-.275.95.95 0 0 0-.7.275L12 11.1l-1.9-1.9a.95.95 0 0 0-.7-.275.95.95 0 0 0-.7.275.95.95 0 0 0-.275.7q0 .425.275.7l1.9 1.9-1.9 1.9a.95.95 0 0 0-.275.7q0 .425.275.7a.95.95 0 0 0 .7.275.95.95 0 0 0 .7-.275z"/></svg>