<svg xmlns="http://www.w3.org/2000/svg" width="24" height="24" fill="none" viewBox="0 0 24 24"><path fill="currentColor" d="M10 19a.97.97 0 0 1-.712-.288A.97.97 0 0 1 9 18q0-.424.288-.712A.97.97 0 0 1 10 17h10q.425 0 .713.288T21 18q0 .424-.288.713A.96.96 0 0 1 20 19zm0-6a.97.97 0 0 1-.712-.288A.97.97 0 0 1 9 12q0-.424.288-.712A.97.97 0 0 1 10 11h10q.425 0 .713.288T21 12q0 .424-.288.713A.96.96 0 0 1 20 13zm0-6a.97.97 0 0 1-.712-.288A.97.97 0 0 1 9 6q0-.424.288-.712A.97.97 0 0 1 10 5h10q.425 0 .713.288.288.289.287.712 0 .424-.288.713A.96.96 0 0 1 20 7zM5 20q-.824 0-1.412-.587A1.93 1.93 0 0 1 3 18q0-.825.588-1.412Q4.177 16.002 5 16a1.92 1.92 0 0 1 1.413.588q.59.59.587 1.412a1.95 1.95 0 0 1-.587 1.413A1.9 1.9 0 0 1 5 20m0-6q-.824 0-1.412-.587A1.93 1.93 0 0 1 3 12q0-.825.588-1.412Q4.177 10.002 5 10a1.92 1.92 0 0 1 1.413.588q.59.59.587 1.412a1.95 1.95 0 0 1-.587 1.413A1.9 1.9 0 0 1 5 14m0-6q-.824 0-1.412-.587A1.93 1.93 0 0 1 3 6q0-.825.588-1.412Q4.177 4.002 5 4a1.92 1.92 0 0 1 1.413.588Q7.003 5.178 7 6a1.95 1.95 0 0 1-.587 1.413A1.9 1.9 0 0 1 5 8"/></svg>