<svg xmlns="http://www.w3.org/2000/svg" width="24" height="24" fill="none" viewBox="0 0 24 24"><path fill="currentColor" d="M7 17q-2.074 0-3.537-1.463Q2.001 14.075 2 12q0-2.075 1.463-3.537Q4.927 7 7 7h3q.425 0 .713.288.288.289.287.712 0 .424-.288.713A.96.96 0 0 1 10 9H7q-1.25 0-2.125.875A2.9 2.9 0 0 0 4 12q0 1.25.875 2.125A2.9 2.9 0 0 0 7 15h3q.425 0 .713.288T11 16t-.288.713A.96.96 0 0 1 10 17zm2-4a.97.97 0 0 1-.712-.288A.97.97 0 0 1 8 12q0-.424.288-.712A.97.97 0 0 1 9 11h6q.425 0 .713.288T16 12t-.288.713A.96.96 0 0 1 15 13zm5 4a.97.97 0 0 1-.712-.288A.97.97 0 0 1 13 16q0-.424.288-.712A.97.97 0 0 1 14 15h3q1.25 0 2.125-.875A2.9 2.9 0 0 0 20 12q0-1.25-.875-2.125A2.9 2.9 0 0 0 17 9h-3a.97.97 0 0 1-.712-.288A.97.97 0 0 1 13 8q0-.424.288-.712A.97.97 0 0 1 14 7h3q2.075 0 3.538 1.463T22 12q0 2.074-1.463 3.538Q19.075 17.002 17 17z"/></svg>