<svg xmlns="http://www.w3.org/2000/svg" width="24" height="24" fill="none" viewBox="0 0 24 24"><g clip-path="url(#a)"><path fill="#168DE2" d="M21 0H3a3 3 0 0 0-3 3v18a3 3 0 0 0 3 3h18a3 3 0 0 0 3-3V3a3 3 0 0 0-3-3"/><path fill="#fff" d="M15.238 11.914c-.106-2.072-1.645-3.319-3.504-3.319h-.07c-2.144 0-3.333 1.686-3.333 3.602 0 2.145 1.438 3.5 3.325 3.5 2.103 0 3.487-1.541 3.587-3.364zM11.675 6.74c1.433 0 2.78.633 3.77 1.625v.004c0-.476.32-.835.764-.835h.113c.696 0 .839.657.839.866l.003 7.402c-.05.485.5.735.805.424 1.188-1.221 2.61-6.28-.74-9.21-3.12-2.732-7.31-2.282-9.537-.747-2.369 1.634-3.884 5.249-2.412 8.644 1.605 3.703 6.196 4.808 8.925 3.706 1.382-.558 2.02 1.31.585 1.92-2.168.924-8.204.83-11.023-4.053-1.905-3.298-1.804-9.1 3.248-12.106 3.865-2.3 8.961-1.664 12.034 1.545 3.212 3.355 3.024 9.637-.108 12.079-1.42 1.11-3.528.03-3.515-1.587l-.014-.529a5.27 5.27 0 0 1-3.737 1.553c-2.831 0-5.323-2.49-5.323-5.322 0-2.859 2.492-5.38 5.323-5.38"/></g><defs><clipPath id="a"><path fill="#fff" d="M0 0h24v24H0z"/></clipPath></defs></svg>