<svg xmlns="http://www.w3.org/2000/svg" width="24" height="24" fill="none" viewBox="0 0 24 24"><path fill="url(#a)" d="M7.14 14.352c1.977 0 3.58-1.626 3.58-3.63s-1.603-3.63-3.58-3.63c-1.979 0-3.582 1.626-3.582 3.63s1.603 3.63 3.581 3.63"/><path fill="url(#b)" d="M23 14.093c0-2.434-1.947-4.408-4.349-4.408s-4.349 1.973-4.349 4.407c0 .088.008.173.013.26h-4.136q.028-.255.03-.518c0-2.578-2.061-4.667-4.604-4.667S1 11.256 1 13.834 3.062 18.5 5.605 18.5H19c2.282-.135 4-2.061 4-4.408"/><path fill="url(#c)" d="M10.087 12.781c-.471-2.07-2.297-3.615-4.483-3.615-.661 0-1.289.144-1.857.399a3.7 3.7 0 0 0-.19 1.157c0 2.005 1.604 3.63 3.582 3.63a3.56 3.56 0 0 0 2.948-1.571"/><path fill="url(#d)" d="M13.535 16.426c3.25 0 5.884-2.67 5.884-5.963S16.785 4.5 13.535 4.5s-5.883 2.67-5.883 5.963 2.634 5.963 5.883 5.963"/><path fill="url(#e)" d="M8.512 7.37a6 6 0 0 0-.86 3.092c0 1.304.417 2.507 1.118 3.489a3.63 3.63 0 0 0 1.95-3.23A3.63 3.63 0 0 0 8.513 7.37"/><path fill="url(#f)" d="M7.704 9.684a5.97 5.97 0 0 0 1.065 4.267l.008-.004c.283-.147.543-.332.776-.547l.058-.06q.134-.128.254-.27.052-.063.1-.13.062-.081.12-.168a4.67 4.67 0 0 0-2.381-3.088"/><path fill="url(#g)" d="M14.303 14.093c0 .79.208 1.531.567 2.173 2.606-.614 4.549-2.976 4.549-5.803 0-.242-.019-.478-.047-.712a4.3 4.3 0 0 0-.721-.066c-2.401 0-4.348 1.974-4.348 4.408"/><defs><linearGradient id="a" x1="3.448" x2="13.686" y1="10.718" y2="10.73" gradientUnits="userSpaceOnUse"><stop offset=".309" stop-color="#33BEF0"/><stop offset="1" stop-color="#0A85D9"/></linearGradient><linearGradient id="b" x1=".847" x2="19.511" y1="13.809" y2="13.906" gradientUnits="userSpaceOnUse"><stop offset=".309" stop-color="#33BEF0"/><stop offset="1" stop-color="#0A85D9"/></linearGradient><linearGradient id="c" x1="7.184" x2="6.389" y1="18.593" y2="3.655" gradientUnits="userSpaceOnUse"><stop offset=".404" stop-color="#33BEF0"/><stop offset="1" stop-color="#0A85D9"/></linearGradient><linearGradient id="d" x1="-.905" x2="19.713" y1="21.102" y2="5.911" gradientUnits="userSpaceOnUse"><stop offset=".309" stop-color="#33BEF0"/><stop offset="1" stop-color="#0A85D9"/></linearGradient><linearGradient id="e" x1="15.981" x2="5.269" y1="10.392" y2="10.784" gradientUnits="userSpaceOnUse"><stop offset=".246" stop-color="#33BEF0"/><stop offset="1" stop-color="#0A85D9"/></linearGradient><linearGradient id="f" x1="13.333" x2="5.664" y1="22.381" y2="4.796" gradientUnits="userSpaceOnUse"><stop offset=".415" stop-color="#33BEF0"/><stop offset=".652" stop-color="#1797E0"/><stop offset=".795" stop-color="#0A85D9"/></linearGradient><linearGradient id="g" x1="5.945" x2="18.99" y1="26.44" y2="9.837" gradientUnits="userSpaceOnUse"><stop offset=".309" stop-color="#33BEF0"/><stop offset="1" stop-color="#0A85D9"/></linearGradient></defs></svg>