<svg xmlns="http://www.w3.org/2000/svg" width="24" height="24" fill="none" viewBox="0 0 24 24"><path fill="currentColor" d="M9 20H5q-.824 0-1.412-.587A1.93 1.93 0 0 1 3 18V4q0-.824.588-1.412A1.93 1.93 0 0 1 5 2h14q.825 0 1.413.588T21 4v14q0 .825-.587 1.413A1.92 1.92 0 0 1 19 20h-4l-2.3 2.3q-.15.15-.325.213a1.15 1.15 0 0 1-.75 0 .85.85 0 0 1-.325-.213zm-4-3.15q1.35-1.325 3.138-2.087Q9.927 14.001 12 14q2.074 0 3.863.763A10.1 10.1 0 0 1 19 16.85V4H5zM12 12q1.45 0 2.475-1.025A3.37 3.37 0 0 0 15.5 8.5q0-1.45-1.025-2.475A3.37 3.37 0 0 0 12 5q-1.45 0-2.475 1.025A3.37 3.37 0 0 0 8.5 8.5q0 1.45 1.025 2.475A3.37 3.37 0 0 0 12 12m-5 6h10v-.25a7.3 7.3 0 0 0-2.325-1.312A8.2 8.2 0 0 0 12 16q-1.4 0-2.675.438Q8.05 16.878 7 17.75zm5-8q-.625 0-1.062-.437A1.45 1.45 0 0 1 10.5 8.5q0-.625.438-1.062Q11.378 7.002 12 7t1.063.438q.44.44.437 1.062a1.47 1.47 0 0 1-.437 1.063A1.42 1.42 0 0 1 12 10"/></svg>